<svg width="16" height="16" viewBox="0 0 16 16" fill="none" xmlns="http://www.w3.org/2000/svg">
<path d="M15.7983 14.8533L11.2077 10.2594C12.1127 9.17401 12.657 7.78698 12.657 6.27208C12.657 2.81598 9.82068 0.00585938 6.3318 0.00585938C2.84291 0.00585938 0 2.81926 0 6.27535C0 9.73145 2.83636 12.5416 6.32524 12.5416C7.80736 12.5416 9.17143 12.0333 10.2535 11.1841L14.8605 15.7911C15.1294 16.06 15.5295 16.06 15.7983 15.7911C16.0672 15.5222 16.0672 15.1222 15.7983 14.8533ZM1.3444 6.27535C1.3444 3.56032 3.58069 1.35354 6.32524 1.35354C9.06978 1.35354 11.3061 3.56032 11.3061 6.27535C11.3061 8.99039 9.06978 11.1972 6.32524 11.1972C3.58069 11.1972 1.3444 8.98711 1.3444 6.27535Z" fill="#B980BF"/>
</svg>
